<svg xmlns="http://www.w3.org/2000/svg" xmlns:xlink="http://www.w3.org/1999/xlink" aria-hidden="true" focusable="false" width="1em" height="1em" style="-ms-transform: rotate(360deg); -webkit-transform: rotate(360deg); transform: rotate(360deg);" preserveAspectRatio="xMidYMid meet" viewBox="0 0 48 48"><path fill="#7CB342" d="M12 29.001a2 2 0 0 1-4 0v-9a2 2 0 0 1 4 0v9z"/><path fill="#7CB342" d="M40 29.001a2 2 0 0 1-4 0v-9a2 2 0 0 1 4 0v9z"/><path fill="#7CB342" d="M22 40a2 2 0 0 1-4 0v-9a2 2 0 0 1 4 0v9z"/><path fill="#7CB342" d="M30 40a2 2 0 0 1-4 0v-9a2 2 0 0 1 4 0v9z"/><path fill="#7CB342" d="M14 18.001V33a2 2 0 0 0 2 2h16a2 2 0 0 0 2-2V18.001H14z"/><path fill="#7CB342" d="M24 8c-6 0-9.655 3.645-10 8h20c-.346-4.355-4-8-10-8zm-4 5.598a1 1 0 1 1 0-2a1 1 0 0 1 0 2zm8 0a1 1 0 1 1 0-2a1 1 0 0 1 0 2z"/><path fill="none" stroke="#7CB342" stroke-width="2" stroke-linecap="round" d="M30 7l-1.666 2.499"/><path fill="none" stroke="#7CB342" stroke-width="2" stroke-linecap="round" d="M18 7l1.333 2.082"/><rect x="0" y="0" width="48" height="48" fill="rgba(0, 0, 0, 0)" /></svg>